# xmcd
# Copyright (C) 1995-1998 Ti Kan
#
# Track frame offsets:
#       150
#       15223
#       32427
#
# Disc length: 604 seconds
#
# Revision: 0
# Processed by: cddbd v1.5.2PL0 Copyright (c) Steve Scherf et al.
# Submitted via: CD-Transfer v1.0
#
DISCID=0f025a03
DTITLE=Tiroler Nchtschwärmer - 
DYEAR=10
DGENRE=
TTITLE0=Heit Gehts Uns Guat (10)
TTITLE1=Coro Alpino (10)
TTITLE2=Komm Zu Mir (10)
EXTD=
EXTT0=
EXTT1=
EXTT2=
PLAYORDER=
